<svg width="132" height="38" viewBox="0 0 132 38" fill="none" xmlns="http://www.w3.org/2000/svg">
<path d="M27.912 35.4948C27.5293 34.7668 26.6069 34.2685 25.9625 33.7701C25.189 33.1719 24.4067 32.5824 23.5748 32.0607C23.3621 31.9275 22.9099 31.7247 22.834 31.4624C23.2137 32.7734 24.0024 33.8642 24.8717 34.9123C24.8577 34.9298 24.8431 34.9474 24.8291 34.9643L23.5964 34.6138C23.6332 34.8153 23.6636 34.9701 23.6899 35.1261C23.7664 35.5836 23.92 36.0124 24.2554 36.3548C24.5516 36.6568 24.8501 36.9571 25.1492 37.2568C25.2351 37.2142 25.3204 37.1704 25.4051 37.1265C26.2844 36.6685 27.1543 36.1918 28.0154 35.7004C27.9803 35.6321 27.9482 35.5625 27.9126 35.4954L27.912 35.4948Z" fill="#FC539A"/>
<path d="M42.813 2.44225C39.6816 0.0673473 35.3345 -0.680471 31.6487 0.683129C28.0721 2.007 25.3859 5.1046 23.6969 8.52411C22.1733 3.56924 17.1507 -0.0798793 11.9676 0.00132906C1.31555 0.169004 -2.67289 12.487 1.8209 20.7866C2.00259 21.1219 2.19655 21.4497 2.39577 21.7733C2.43725 21.4958 2.48749 21.2189 2.54007 20.9431C2.60434 20.6066 2.74104 20.2795 2.77493 19.9418C2.83627 19.3283 2.84036 18.7096 2.87833 18.0938C2.90813 17.6089 2.96538 17.1258 3.25223 16.7057C3.59984 16.1957 3.82126 15.6336 4.0234 15.0623C4.12388 14.7777 4.16945 14.4658 4.3196 14.2093C4.66837 13.6122 5.06506 13.0408 5.4448 12.4601C5.46408 12.4309 5.50848 12.4174 5.54119 12.3964C5.6557 12.6914 5.7445 12.9801 5.87712 13.2488C6.08452 13.6683 6.2405 13.8295 6.45549 13.9259C6.44206 13.902 6.43446 13.8833 6.42219 13.8681C5.84323 13.1261 5.62882 12.307 5.95248 11.4167C6.2072 10.7156 6.53495 10.0688 6.80894 9.38118C6.85919 9.25499 6.9106 9.12646 6.99589 9.01896C7.25295 8.69296 7.74603 8.63629 8.16491 8.70815C8.60599 8.78351 9.0389 8.97573 9.48407 9.02013C9.9865 9.07037 10.5187 8.99968 11.027 9.02831C11.7532 9.06862 12.6862 9.07505 13.1933 9.65519C13.3008 9.77846 13.2826 9.92861 13.3621 10.0653C13.469 10.2482 13.6904 10.3855 13.8523 10.5193C14.3325 10.916 14.8483 11.2834 15.1755 11.8192C15.3519 12.1084 15.491 12.4186 15.647 12.7189C15.6254 12.7388 15.6037 12.7586 15.5821 12.7779C15.4518 12.7434 15.3216 12.709 15.1451 12.6622C15.2263 12.7265 15.2649 12.7744 15.3151 12.7943C15.6896 12.9433 16.0641 13.094 16.4438 13.2307C17.0368 13.4439 17.6368 13.6385 18.2275 13.857C18.6609 14.0177 18.9174 14.3507 18.9496 14.7812C19.0004 15.466 18.7305 16.0403 18.1509 16.4644C17.7466 16.76 17.2664 16.8821 16.785 16.992C16.9153 17.034 17.0409 17.0697 17.163 17.1147C17.4855 17.2339 17.5468 17.325 17.5112 17.6528C17.4551 18.1692 17.2203 18.6062 16.8183 18.9486C16.7062 19.0438 16.5326 19.1303 16.3907 19.1256C15.8748 19.1075 15.3584 19.0608 14.8454 19.0029C14.3851 18.9509 13.9276 18.8691 13.4398 18.7961C13.8359 19.7268 14.2075 20.6434 14.2413 21.6355C14.2752 22.6135 14.0894 23.5704 13.8166 24.5146C13.9043 24.4199 13.972 24.3218 14.0369 24.2207C14.3938 23.6668 14.6556 23.0785 14.7303 22.4248C14.7829 21.9656 14.7315 21.5134 14.5919 21.0746C14.4201 20.5342 14.2262 20.0008 14.0415 19.4639C14.0158 19.3897 13.9925 19.3149 13.958 19.2091C14.1736 19.2202 14.3506 19.2127 14.5206 19.2413C15.3093 19.3751 16.1027 19.4907 16.8814 19.6666C17.6672 19.8442 18.4559 20.0388 19.2101 20.3098C20.2576 20.6873 21.2882 21.1155 22.3012 21.5724C23.5748 22.1461 24.7976 22.8144 25.9496 23.5926C26.9107 24.2417 27.919 24.8073 29.0168 25.2116C29.8867 25.5317 30.7659 25.8308 31.6539 26.1019C32.074 26.2299 32.5203 26.3041 32.9602 26.342C33.5783 26.3958 34.183 26.2719 34.7614 26.0575C35.2434 25.8787 35.6792 25.6275 35.9987 25.2227C36.3125 24.8254 36.3242 24.3913 36.0285 23.9812C35.7493 23.5932 35.3427 23.3601 34.9162 23.1562C34.6597 23.0335 34.3916 22.9342 34.0784 22.8028C34.1964 22.7595 34.266 22.7216 34.3396 22.7087C34.6837 22.6491 35.0284 22.5889 35.3748 22.5416C36.3791 22.4037 37.3255 22.565 38.1925 23.0779C39.2172 23.6838 39.7564 24.5841 39.7617 25.728C39.7664 26.661 39.3872 27.4906 38.7416 28.1941C37.6556 29.3765 36.2482 29.9742 34.655 30.1822C33.902 30.2804 33.1343 30.2704 32.383 30.1372C31.7398 30.0227 31.1036 29.8696 30.4668 29.7259C30.2448 29.6757 30.028 29.6032 29.7722 29.5308C29.8469 29.7172 29.9077 29.8585 29.9609 30.0017C30.2033 30.6537 30.458 31.3051 30.5019 32.0044C30.5334 32.5075 30.5311 33.0122 30.5404 33.5164C30.5492 33.9768 30.6701 34.3916 30.8775 34.7702C32.7347 33.6046 34.544 32.3631 36.2973 31.0469C39.3165 28.7806 42.202 26.2649 44.3858 23.186C46.0175 20.8853 47.1415 18.161 47.5785 15.3836C48.3316 10.5981 47.0469 5.65378 42.8119 2.44225H42.813Z" fill="#FC539A"/>
<path d="M63.9879 14.6977H72.1169V21.5625H69.7838L69.5525 19.7012C68.1639 21.0723 66.0528 21.5625 64.0229 21.5625C59.5179 21.5441 55.8322 20.2439 55.8497 15.7215V14.8489C55.8322 10.3163 59.5179 9.01703 64.0238 9.00781C68.1731 9.00781 71.5926 10.1384 72.1178 13.8251H67.1586C66.8646 13.4243 66.4371 13.1571 65.8851 13.0143C65.3323 12.8724 64.7094 12.8014 64.0238 12.8014C62.1091 12.8281 60.4892 13.1847 60.515 15.1345V15.4284C60.4882 17.3967 62.1091 17.7348 64.0238 17.7615C65.8667 17.7615 67.0425 17.6547 67.7455 16.7461H63.9888V14.6977H63.9879Z" fill="black"/>
<path d="M78.8943 9.31934H84.4414L90.8611 21.2862H85.608L84.6644 19.2378H78.6713L77.7278 21.2862H72.4746L78.8943 9.31934ZM80.0249 16.3177H83.3108L81.6725 12.7831L80.0249 16.3177Z" fill="black"/>
<path d="M91.2158 9.30176H97.0568L101.722 15.2856L106.397 9.30176H112.228V21.2686H107.563V14.8839L102.889 21.2677H100.556L95.881 14.8839V21.2677H91.2148V9.30176H91.2158Z" fill="black"/>
<path d="M126.477 9.31935C128.944 9.29263 131.036 11.3677 131.001 13.8418C131.036 16.3085 128.943 18.4002 126.477 18.3652H119.613V21.2862H114.947V9.31935H126.478H126.477ZM125.311 14.8572C125.587 14.8572 125.828 14.7596 126.023 14.5633C126.228 14.3587 126.325 14.1182 126.325 13.8418C126.325 13.5654 126.228 13.3166 126.023 13.1212C125.827 12.9167 125.587 12.819 125.311 12.819H119.613V14.8572H125.311Z" fill="black"/>
<path d="M60.5149 25.4595V33.6336H69.8556V37.4263H55.8496V25.4595H60.5149Z" fill="#FC539A"/>
<path d="M86.552 31.0066V31.8792C86.5705 36.4016 82.8838 37.711 78.3871 37.7202C73.8812 37.711 70.1955 36.4016 70.213 31.8792V31.0066C70.1945 26.474 73.8812 25.1747 78.3871 25.1655C82.893 25.1655 86.552 26.4832 86.552 31.0066ZM81.8868 31.2913C81.9135 29.3415 80.2927 28.9849 78.3871 28.9582C76.4723 28.9849 74.8524 29.3415 74.8792 31.2913V31.5852C74.8524 33.5442 76.4723 33.9008 78.3871 33.9266C80.2927 33.8999 81.9126 33.5433 81.8868 31.5852V31.2913Z" fill="#FC539A"/>
<path d="M94.6012 33.7848L98.252 25.4771H103.505L97.3701 37.4439H91.823L85.6973 25.4771H90.9504L94.6012 33.7848Z" fill="#FC539A"/>
<path d="M103.861 25.4771H117.867V28.5399H108.527V30.0714H117.867V32.8412H108.527V34.3718H117.867V37.4439H103.861V25.4771Z" fill="#FC539A"/>
</svg>
