<svg width="132" height="40" viewBox="0 0 132 40" fill="none" xmlns="http://www.w3.org/2000/svg">
<path d="M27.912 36.4948C27.5293 35.7668 26.6069 35.2685 25.9625 34.7701C25.189 34.1719 24.4067 33.5824 23.5748 33.0607C23.3621 32.9275 22.9099 32.7247 22.834 32.4624C23.2137 33.7734 24.0024 34.8642 24.8717 35.9123C24.8577 35.9298 24.8431 35.9474 24.8291 35.9643L23.5964 35.6138C23.6332 35.8153 23.6636 35.9701 23.6899 36.1261C23.7664 36.5836 23.92 37.0124 24.2554 37.3548C24.5516 37.6568 24.8501 37.9571 25.1492 38.2568C25.2351 38.2142 25.3204 38.1704 25.4051 38.1265C26.2844 37.6685 27.1543 37.1918 28.0154 36.7004C27.9803 36.6321 27.9482 36.5625 27.9126 36.4954L27.912 36.4948Z" fill="#393939"/>
<path d="M42.813 3.44225C39.6816 1.06735 35.3345 0.319529 31.6487 1.68313C28.0721 3.007 25.3859 6.1046 23.6969 9.52411C22.1733 4.56924 17.1507 0.920121 11.9676 1.00133C1.31555 1.169 -2.67289 13.487 1.8209 21.7866C2.00259 22.1219 2.19655 22.4497 2.39577 22.7733C2.43725 22.4958 2.48749 22.2189 2.54007 21.9431C2.60434 21.6066 2.74104 21.2795 2.77493 20.9418C2.83627 20.3283 2.84036 19.7096 2.87833 19.0938C2.90813 18.6089 2.96538 18.1258 3.25223 17.7057C3.59984 17.1957 3.82126 16.6336 4.0234 16.0623C4.12388 15.7777 4.16945 15.4658 4.3196 15.2093C4.66837 14.6122 5.06506 14.0408 5.4448 13.4601C5.46408 13.4309 5.50848 13.4174 5.54119 13.3964C5.6557 13.6914 5.7445 13.9801 5.87712 14.2488C6.08452 14.6683 6.2405 14.8295 6.45549 14.9259C6.44206 14.902 6.43446 14.8833 6.42219 14.8681C5.84323 14.1261 5.62882 13.307 5.95248 12.4167C6.2072 11.7156 6.53495 11.0688 6.80894 10.3812C6.85919 10.255 6.9106 10.1265 6.99589 10.019C7.25295 9.69296 7.74603 9.63629 8.16491 9.70815C8.60599 9.78351 9.0389 9.97573 9.48407 10.0201C9.9865 10.0704 10.5187 9.99968 11.027 10.0283C11.7532 10.0686 12.6862 10.075 13.1933 10.6552C13.3008 10.7785 13.2826 10.9286 13.3621 11.0653C13.469 11.2482 13.6904 11.3855 13.8523 11.5193C14.3325 11.916 14.8483 12.2834 15.1755 12.8192C15.3519 13.1084 15.491 13.4186 15.647 13.7189C15.6254 13.7388 15.6037 13.7586 15.5821 13.7779C15.4518 13.7434 15.3216 13.709 15.1451 13.6622C15.2263 13.7265 15.2649 13.7744 15.3151 13.7943C15.6896 13.9433 16.0641 14.094 16.4438 14.2307C17.0368 14.4439 17.6368 14.6385 18.2275 14.857C18.6609 15.0177 18.9174 15.3507 18.9496 15.7812C19.0004 16.466 18.7305 17.0403 18.1509 17.4644C17.7466 17.76 17.2664 17.8821 16.785 17.992C16.9153 18.034 17.0409 18.0697 17.163 18.1147C17.4855 18.2339 17.5468 18.325 17.5112 18.6528C17.4551 19.1692 17.2203 19.6062 16.8183 19.9486C16.7062 20.0438 16.5326 20.1303 16.3907 20.1256C15.8748 20.1075 15.3584 20.0608 14.8454 20.0029C14.3851 19.9509 13.9276 19.8691 13.4398 19.7961C13.8359 20.7268 14.2075 21.6434 14.2413 22.6355C14.2752 23.6135 14.0894 24.5704 13.8166 25.5146C13.9043 25.4199 13.972 25.3218 14.0369 25.2207C14.3938 24.6668 14.6556 24.0785 14.7303 23.4248C14.7829 22.9656 14.7315 22.5134 14.5919 22.0746C14.4201 21.5342 14.2262 21.0008 14.0415 20.4639C14.0158 20.3897 13.9925 20.3149 13.958 20.2091C14.1736 20.2202 14.3506 20.2127 14.5206 20.2413C15.3093 20.3751 16.1027 20.4907 16.8814 20.6666C17.6672 20.8442 18.4559 21.0388 19.2101 21.3098C20.2576 21.6873 21.2882 22.1155 22.3012 22.5724C23.5748 23.1461 24.7976 23.8144 25.9496 24.5926C26.9107 25.2417 27.919 25.8073 29.0168 26.2116C29.8867 26.5317 30.7659 26.8308 31.6539 27.1019C32.074 27.2299 32.5203 27.3041 32.9602 27.342C33.5783 27.3958 34.183 27.2719 34.7614 27.0575C35.2434 26.8787 35.6792 26.6275 35.9987 26.2227C36.3125 25.8254 36.3242 25.3913 36.0285 24.9812C35.7493 24.5932 35.3427 24.3601 34.9162 24.1562C34.6597 24.0335 34.3916 23.9342 34.0784 23.8028C34.1964 23.7595 34.266 23.7216 34.3396 23.7087C34.6837 23.6491 35.0284 23.5889 35.3748 23.5416C36.3791 23.4037 37.3255 23.565 38.1925 24.0779C39.2172 24.6838 39.7564 25.5841 39.7617 26.728C39.7664 27.661 39.3872 28.4906 38.7416 29.1941C37.6556 30.3765 36.2482 30.9742 34.655 31.1822C33.902 31.2804 33.1343 31.2704 32.383 31.1372C31.7398 31.0227 31.1036 30.8696 30.4668 30.7259C30.2448 30.6757 30.028 30.6032 29.7722 30.5308C29.8469 30.7172 29.9077 30.8585 29.9609 31.0017C30.2033 31.6537 30.458 32.3051 30.5019 33.0044C30.5334 33.5075 30.5311 34.0122 30.5404 34.5164C30.5492 34.9768 30.6701 35.3916 30.8775 35.7702C32.7347 34.6046 34.544 33.3631 36.2973 32.0469C39.3165 29.7806 42.202 27.2649 44.3858 24.186C46.0175 21.8853 47.1415 19.161 47.5785 16.3836C48.3316 11.5981 47.0469 6.65378 42.8119 3.44225H42.813Z" fill="#393939"/>
<path d="M63.9879 15.6977H72.1169V22.5625H69.7838L69.5525 20.7012C68.1639 22.0723 66.0528 22.5625 64.0229 22.5625C59.5179 22.5441 55.8322 21.2439 55.8497 16.7215V15.8489C55.8322 11.3163 59.5179 10.017 64.0238 10.0078C68.1731 10.0078 71.5926 11.1384 72.1178 14.8251H67.1586C66.8646 14.4243 66.4371 14.1571 65.8851 14.0143C65.3323 13.8724 64.7094 13.8014 64.0238 13.8014C62.1091 13.8281 60.4892 14.1847 60.515 16.1345V16.4284C60.4882 18.3967 62.1091 18.7348 64.0238 18.7615C65.8667 18.7615 67.0425 18.6547 67.7455 17.7461H63.9888V15.6977H63.9879Z" fill="#393939"/>
<path d="M78.8943 10.3193H84.4414L90.8611 22.2862H85.608L84.6644 20.2378H78.6713L77.7278 22.2862H72.4746L78.8943 10.3193ZM80.0249 17.3177H83.3108L81.6725 13.7831L80.0249 17.3177Z" fill="#393939"/>
<path d="M91.2158 10.3018H97.0568L101.722 16.2856L106.397 10.3018H112.228V22.2686H107.563V15.8839L102.889 22.2677H100.556L95.881 15.8839V22.2677H91.2148V10.3018H91.2158Z" fill="#393939"/>
<path d="M126.477 10.3192C128.944 10.2925 131.036 12.3676 131.001 14.8417C131.036 17.3084 128.943 19.4001 126.477 19.3651H119.613V22.286H114.947V10.3192H126.478H126.477ZM125.311 15.8571C125.587 15.8571 125.828 15.7594 126.023 15.5632C126.228 15.3586 126.325 15.1181 126.325 14.8417C126.325 14.5652 126.228 14.3165 126.023 14.1211C125.827 13.9165 125.587 13.8189 125.311 13.8189H119.613V15.8571H125.311Z" fill="#393939"/>
<path d="M60.5149 26.4596V34.6337H69.8556V38.4264H55.8496V26.4596H60.5149Z" fill="#393939"/>
<path d="M86.552 32.0066V32.8792C86.5705 37.4016 82.8838 38.711 78.3871 38.7202C73.8812 38.711 70.1955 37.4016 70.213 32.8792V32.0066C70.1945 27.474 73.8812 26.1747 78.3871 26.1655C82.893 26.1655 86.552 27.4832 86.552 32.0066ZM81.8868 32.2913C81.9135 30.3415 80.2927 29.9849 78.3871 29.9582C76.4723 29.9849 74.8524 30.3415 74.8792 32.2913V32.5852C74.8524 34.5442 76.4723 34.9008 78.3871 34.9266C80.2927 34.8999 81.9126 34.5433 81.8868 32.5852V32.2913Z" fill="#393939"/>
<path d="M94.6012 34.7848L98.252 26.4771H103.505L97.3701 38.4439H91.823L85.6973 26.4771H90.9504L94.6012 34.7848Z" fill="#393939"/>
<path d="M103.861 26.4771H117.867V29.5399H108.527V31.0714H117.867V33.8412H108.527V35.3718H117.867V38.4439H103.861V26.4771Z" fill="#393939"/>
</svg>
